<?xml version="1.0" encoding="UTF-8"?>
<svg version="1.1" xmlns="http://www.w3.org/2000/svg" width="112" height="98">
<path d="M0 0 C36.96 0 73.92 0 112 0 C112 32.34 112 64.68 112 98 C75.04 98 38.08 98 0 98 C0 65.66 0 33.32 0 0 Z " fill="#FDFDFD" transform="translate(0,0)"/>
<path d="M0 0 C0.66 0.680625 1.32 1.36125 2 2.0625 C2.66 2.7225 3.32 3.3825 4 4.0625 C4.495 5.0525 4.495 5.0525 5 6.0625 C5.639375 6.18625 6.27875 6.31 6.9375 6.4375 C9 7.0625 9 7.0625 10.11328125 8.6953125 C11.25636268 11.7468867 11.2649255 14.30874045 11.25 17.5625 C11.25773437 19.24859375 11.25773437 19.24859375 11.265625 20.96875 C11.01284295 23.91291743 10.53364541 25.57945505 9 28.0625 C10.485 28.5575 10.485 28.5575 12 29.0625 C12.32136655 33.66875394 11.91033076 36.39763904 9 40.0625 C8.01 40.0625 7.02 40.0625 6 40.0625 C5.731875 40.866875 5.46375 41.67125 5.1875 42.5 C4.795625 43.345625 4.40375 44.19125 4 45.0625 C3.01 45.3925 2.02 45.7225 1 46.0625 C-0.37334617 48.35141028 -1.15250816 50.52002447 -2 53.0625 C4.82571416 53.61793786 9.16994426 53.67368317 14.5078125 49.19140625 C16 48.0625 16 48.0625 18.75 47.5 C21 48.0625 21 48.0625 22.875 49.6875 C24.41411816 52.93674945 23.97883704 54.63657034 23 58.0625 C20.86842826 62.79932608 17.20803584 66.11180499 13 69.0625 C12.34 69.0625 11.68 69.0625 11 69.0625 C11 70.0525 11 71.0425 11 72.0625 C12.093125 71.98 13.18625 71.8975 14.3125 71.8125 C18 72.0625 18 72.0625 20.0625 73.6875 C21 76.0625 21 76.0625 20.5 79.0625 C17.92937786 84.20374427 14.23387574 86.14766741 9 88.0625 C8.14519043 88.57079346 7.29038086 89.07908691 6.40966797 89.6027832 C2.06243019 91.46388407 -1.4477245 91.44341479 -6.1171875 91.35546875 C-6.97434357 91.35122391 -7.83149963 91.34697906 -8.71463013 91.34260559 C-11.43508164 91.32589886 -14.15477482 91.28826219 -16.875 91.25 C-18.72655175 91.23494278 -20.57811519 91.2212562 -22.4296875 91.20898438 C-26.95341433 91.17602165 -31.47657887 91.12429537 -36 91.0625 C-36 88.7525 -36 86.4425 -36 84.0625 C-36.639375 83.918125 -37.27875 83.77375 -37.9375 83.625 C-40 83.0625 -40 83.0625 -41 82.0625 C-41.04092937 79.72952567 -41.04241723 77.39544775 -41 75.0625 C-37.78548731 73.45524365 -34.56387464 74.00501815 -31 74.0625 C-31 73.0725 -31 72.0825 -31 71.0625 C-31.71542969 70.9490625 -32.43085937 70.835625 -33.16796875 70.71875 C-41.37806966 68.81627145 -48.29628371 63.81836429 -53.5859375 57.375 C-55.92632632 53.54762381 -55.98018809 51.43564685 -55 47.0625 C-52.5 45.0625 -52.5 45.0625 -50 44.0625 C-46.81776895 45.79826239 -44.33253403 47.68322457 -41.75 50.1875 C-37.77816845 53.65100604 -34.1989833 54.33753154 -29 54.0625 C-26.22087 53.58700101 -23.70426511 52.89836376 -21 52.0625 C-24.38597488 47.72421968 -27.99896924 44.19528849 -32.23046875 40.67578125 C-34.47620444 38.62834452 -35.88317549 36.94133448 -36.29052734 33.87695312 C-36.73380346 9.14881874 -36.73380346 9.14881874 -32 3.0625 C-29.11859995 1.24915455 -26.31072812 0.70697455 -23 0.0625 C-21.35175777 -0.51399172 -19.7059263 -1.09741938 -18.0625 -1.6875 C-11.67943419 -3.56662685 -5.68973561 -3.67462092 0 0 Z " fill="#5C85A9" transform="translate(71,6.9375)"/>
<path d="M0 0 C0.66 0.680625 1.32 1.36125 2 2.0625 C2.66 2.7225 3.32 3.3825 4 4.0625 C4.495 5.0525 4.495 5.0525 5 6.0625 C5.639375 6.18625 6.27875 6.31 6.9375 6.4375 C9 7.0625 9 7.0625 10.11328125 8.6953125 C11.25636268 11.7468867 11.2649255 14.30874045 11.25 17.5625 C11.25773437 19.24859375 11.25773437 19.24859375 11.265625 20.96875 C11.01284295 23.91291743 10.53364541 25.57945505 9 28.0625 C9.99 28.3925 10.98 28.7225 12 29.0625 C12.32136655 33.66875394 11.91033076 36.39763904 9 40.0625 C8.01 40.0625 7.02 40.0625 6 40.0625 C5.731875 40.866875 5.46375 41.67125 5.1875 42.5 C4.795625 43.345625 4.40375 44.19125 4 45.0625 C3.01 45.3925 2.02 45.7225 1 46.0625 C-0.16666667 47.97916667 -0.16666667 47.97916667 -1 50.0625 C-1.495 51.0525 -1.495 51.0525 -2 52.0625 C-2.99 52.0625 -3.98 52.0625 -5 52.0625 C-5.144375 52.866875 -5.28875 53.67125 -5.4375 54.5 C-6 57.0625 -6 57.0625 -7 58.0625 C-14.45864662 58.42340226 -14.45864662 58.42340226 -18 56.0625 C-18 54.7425 -18 53.4225 -18 52.0625 C-19.98 52.7225 -21.96 53.3825 -24 54.0625 C-23.67 53.4025 -23.34 52.7425 -23 52.0625 C-22.34 52.0625 -21.68 52.0625 -21 52.0625 C-24.38597488 47.72421968 -27.99896924 44.19528849 -32.23046875 40.67578125 C-34.47620444 38.62834452 -35.88317549 36.94133448 -36.29052734 33.87695312 C-36.73380346 9.14881874 -36.73380346 9.14881874 -32 3.0625 C-29.11859995 1.24915455 -26.31072812 0.70697455 -23 0.0625 C-21.35175777 -0.51399172 -19.7059263 -1.09741938 -18.0625 -1.6875 C-11.67943419 -3.56662685 -5.68973561 -3.67462092 0 0 Z " fill="#D1AC81" transform="translate(71,6.9375)"/>
<path d="M0 0 C4.02197823 2.3766235 7.33500634 5.4557503 10.75 8.625 C6.54022383 8.625 4.90088474 6.48731246 1.78515625 3.83984375 C-0.18452451 2.37565393 -0.18452451 2.37565393 -2.50390625 2.94140625 C-3.08011719 3.16699219 -3.65632813 3.39257812 -4.25 3.625 C-4.04185035 8.72466651 -3.08882621 11.98661034 0.38671875 15.78125 C5.86333356 20.05391478 12.46341556 22.75049286 18.75 25.625 C18.75 27.605 18.75 29.585 18.75 31.625 C29.17955321 36.09480852 42.03009588 36.18188989 52.734375 32.4765625 C54.783091 31.64826084 54.783091 31.64826084 56.78125 30.53125 C59.74430454 29.16730426 62.54037912 29.50155304 65.75 29.625 C63.44 29.295 61.13 28.965 58.75 28.625 C58.255 26.645 58.255 26.645 57.75 24.625 C58.28109375 24.26148437 58.8121875 23.89796875 59.359375 23.5234375 C63.7934478 20.36780175 67.26160025 17.60179949 69.75 12.625 C70.08594133 9.37322148 70.08594133 9.37322148 69.75 6.625 C67.91841807 5.89546439 67.91841807 5.89546439 65.75 5.625 C64.03986985 6.59454977 64.03986985 6.59454977 62.5 8.0625 C58.49948655 11.20390101 55.7255641 11.06145299 50.75 10.625 C50.75 10.295 50.75 9.965 50.75 9.625 C51.34167969 9.52703125 51.93335938 9.4290625 52.54296875 9.328125 C57.7690476 8.33917696 60.61477629 7.07101976 64.75 3.625 C67.375 3.125 67.375 3.125 69.75 3.625 C71.625 5.25 71.625 5.25 72.75 7.625 C72.5260057 12.88886614 70.82880442 16.5944277 67.06640625 20.26953125 C62.16012881 24.625 62.16012881 24.625 59.75 24.625 C59.75 25.615 59.75 26.605 59.75 27.625 C60.843125 27.5425 61.93625 27.46 63.0625 27.375 C66.75 27.625 66.75 27.625 68.8125 29.25 C69.75 31.625 69.75 31.625 69.25 34.625 C66.67937786 39.76624427 62.98387574 41.71016741 57.75 43.625 C56.89519043 44.13329346 56.04038086 44.64158691 55.15966797 45.1652832 C50.81243019 47.02638407 47.3022755 47.00591479 42.6328125 46.91796875 C41.77565643 46.91372391 40.91850037 46.90947906 40.03536987 46.90510559 C37.31491836 46.88839886 34.59522518 46.85076219 31.875 46.8125 C30.02344825 46.79744278 28.17188481 46.7837562 26.3203125 46.77148438 C21.79658567 46.73852165 17.27342113 46.68679537 12.75 46.625 C12.75 44.315 12.75 42.005 12.75 39.625 C12.110625 39.480625 11.47125 39.33625 10.8125 39.1875 C8.75 38.625 8.75 38.625 7.75 37.625 C7.70907063 35.29202567 7.70758277 32.95794775 7.75 30.625 C10.96451269 29.01774365 14.18612536 29.56751815 17.75 29.625 C17.75 28.635 17.75 27.645 17.75 26.625 C16.67685547 26.45484375 16.67685547 26.45484375 15.58203125 26.28125 C7.36830577 24.37793154 0.45779053 19.37733469 -4.83984375 12.9375 C-7.15641857 9.13857398 -7.14842343 6.96737989 -6.25 2.625 C-4.18967491 0.03051655 -3.28508189 -0.54751365 0 0 Z " fill="#AEAEAD" transform="translate(22.25,51.375)"/>
<path d="M0 0 C0.66 0.680625 1.32 1.36125 2 2.0625 C2.66 2.7225 3.32 3.3825 4 4.0625 C4.495 5.0525 4.495 5.0525 5 6.0625 C5.639375 6.18625 6.27875 6.31 6.9375 6.4375 C9 7.0625 9 7.0625 10.11328125 8.6953125 C11.25636268 11.7468867 11.2649255 14.30874045 11.25 17.5625 C11.25773437 19.24859375 11.25773437 19.24859375 11.265625 20.96875 C11.01284295 23.91291743 10.53364541 25.57945505 9 28.0625 C9.99 28.3925 10.98 28.7225 12 29.0625 C12.22432841 32.35264997 12.30380397 34.48527246 10.75 37.4375 C9 39.0625 9 39.0625 5 39.0625 C4.505 40.0525 4.505 40.0525 4 41.0625 C4 40.0725 4 39.0825 4 38.0625 C5.65 37.4025 7.3 36.7425 9 36.0625 C9 34.4125 9 32.7625 9 31.0625 C8.505 32.0525 8.505 32.0525 8 33.0625 C6 32.0625 6 32.0625 5 31.0625 C4.58560982 27.9734096 4.23055975 24.88672573 3.92578125 21.78515625 C3.43117625 17.51814026 2.48736045 14.56927047 0 11.0625 C-1.56324232 11.17784604 -3.12559683 11.30525126 -4.6875 11.4375 C-5.55761719 11.50710937 -6.42773438 11.57671875 -7.32421875 11.6484375 C-10.02044978 11.96096597 -10.02044978 11.96096597 -12.46875 13.0625 C-15.3193326 14.18865609 -17.76272284 14.46703418 -20.8125 14.6875 C-21.78832031 14.76226563 -22.76414062 14.83703125 -23.76953125 14.9140625 C-24.87361328 14.98753906 -24.87361328 14.98753906 -26 15.0625 C-28.05598145 24.38784442 -29.13836788 33.65368132 -27 43.0625 C-27.66 42.7325 -28.32 42.4025 -29 42.0625 C-29 41.0725 -29 40.0825 -29 39.0625 C-30.32 38.7325 -31.64 38.4025 -33 38.0625 C-32.01 37.5675 -32.01 37.5675 -31 37.0625 C-30.83318891 34.14597826 -30.83318891 34.14597826 -31 31.0625 C-31.66 30.4025 -32.32 29.7425 -33 29.0625 C-35.09576416 22.07661948 -35.49966598 16.26089672 -34 9.0625 C-33.835 8.010625 -33.67 6.95875 -33.5 5.875 C-31.78444628 2.65833677 -31.30115475 2.4908833 -28 1.375 C-26.33527087 0.93018438 -24.66848956 0.49299578 -23 0.0625 C-22.18660156 -0.22753906 -21.37320313 -0.51757812 -20.53515625 -0.81640625 C-13.42975448 -3.31957307 -6.57410862 -4.24577849 0 0 Z " fill="#7C552F" transform="translate(71,6.9375)"/>
<path d="M0 0 C3.85280651 0 5.53041938 1.4116414 8.125 4 C12.61382924 8.04188953 17.12949791 8.24232432 23 8 C26.71909468 7.52532001 30.35020547 6.85420723 34 6 C34.12375 6.639375 34.2475 7.27875 34.375 7.9375 C34.58125 8.618125 34.7875 9.29875 35 10 C37.28705831 11.14352916 38.59264762 11.10334439 41.125 11.0625 C43.043125 11.0315625 43.043125 11.0315625 45 11 C45.66 9.35 46.32 7.7 47 6 C51.75 6.875 51.75 6.875 54 8 C55.70702735 8.06996014 57.41668003 8.08440154 59.125 8.0625 C60.49011719 8.04896484 60.49011719 8.04896484 61.8828125 8.03515625 C62.58148438 8.02355469 63.28015625 8.01195312 64 8 C62.79296875 9.51953125 62.79296875 9.51953125 61 11 C58.73828125 11.07421875 58.73828125 11.07421875 56.3125 10.6875 C55.50425781 10.56761719 54.69601563 10.44773437 53.86328125 10.32421875 C53.24839844 10.21722656 52.63351563 10.11023437 52 10 C51.67 10.66 51.34 11.32 51 12 C50.34 12 49.68 12 49 12 C49.495 12.495 49.495 12.495 50 13 C50 13.66 50 14.32 50 15 C48.35 15.33 46.7 15.66 45 16 C45 15.34 45 14.68 45 14 C39.06 13.01 39.06 13.01 33 12 C32.67 12.99 32.34 13.98 32 15 C31.34 14.34 30.68 13.68 30 13 C30 12.01 30 11.02 30 10 C26.40813502 11.65701786 26.40813502 11.65701786 24.34765625 14.796875 C23.9634869 17.23138639 23.86748572 19.535317 23.875 22 C23.87242188 22.845625 23.86984375 23.69125 23.8671875 24.5625 C23.99331654 26.87733879 24.2292288 28.81452217 25 31 C25.66 31.33 26.32 31.66 27 32 C25.02 31.67 23.04 31.34 21 31 C21.33 28.69 21.66 26.38 22 24 C21.45472656 23.85304688 20.90945312 23.70609375 20.34765625 23.5546875 C11.70470463 20.98396343 4.00910123 16.67018625 -1 9 C-1.9375 5.25 -1.9375 5.25 -2 2 C-1.34 1.34 -0.68 0.68 0 0 Z " fill="#5A7C9A" transform="translate(19,53)"/>
<path d="M0 0 C1.28125 2.05859375 1.28125 2.05859375 2 4 C-1.75 5.125 -1.75 5.125 -4 4 C-4 4.99 -4 5.98 -4 7 C-4.78375 7.2475 -5.5675 7.495 -6.375 7.75 C-9.40937999 9.19494285 -9.67029725 10.05565819 -11 13 C-13.75078884 13.91692961 -15.35948913 14.10886083 -18.1875 14.0625 C-20.0746875 14.0315625 -20.0746875 14.0315625 -22 14 C-22.061875 13.38125 -22.12375 12.7625 -22.1875 12.125 C-22.828919 9.72238859 -22.828919 9.72238859 -25.5625 8.75 C-26.366875 8.5025 -27.17125 8.255 -28 8 C-28 7.34 -28 6.68 -28 6 C-26.865625 5.71125 -25.73125 5.4225 -24.5625 5.125 C-23.386875 4.75375 -22.21125 4.3825 -21 4 C-20.67 3.34 -20.34 2.68 -20 2 C-13.83309286 -0.82805641 -6.55626859 -2.30730222 0 0 Z " fill="#835C36" transform="translate(68,5)"/>
<path d="M0 0 C4.02197823 2.3766235 7.33500634 5.4557503 10.75 8.625 C6.54022383 8.625 4.90088474 6.48731246 1.78515625 3.83984375 C-0.18452451 2.37565393 -0.18452451 2.37565393 -2.50390625 2.94140625 C-3.08011719 3.16699219 -3.65632813 3.39257812 -4.25 3.625 C-4.04185035 8.72466651 -3.08882621 11.98661034 0.38671875 15.78125 C5.86333356 20.05391478 12.46341556 22.75049286 18.75 25.625 C18.42 28.595 18.09 31.565 17.75 34.625 C19.07 34.625 20.39 34.625 21.75 34.625 C24.25 37.125 24.25 37.125 26.75 39.625 C22.64763193 41.65722669 20.03500944 41.69727503 15.5625 40.875 C14.51707031 40.69453125 13.47164062 40.5140625 12.39453125 40.328125 C9.75 39.625 9.75 39.625 7.75 37.625 C7.625 34 7.625 34 7.75 30.625 C10.96451269 29.01774365 14.18612536 29.56751815 17.75 29.625 C17.75 28.635 17.75 27.645 17.75 26.625 C16.67685547 26.45484375 16.67685547 26.45484375 15.58203125 26.28125 C7.36830577 24.37793154 0.45779053 19.37733469 -4.83984375 12.9375 C-7.15641857 9.13857398 -7.14842343 6.96737989 -6.25 2.625 C-4.18967491 0.03051655 -3.28508189 -0.54751365 0 0 Z " fill="#B8B8B7" transform="translate(22.25,51.375)"/>
<path d="M0 0 C2.75421534 2.63446685 3.94038022 3.97121225 4.16796875 7.8984375 C4.17441406 9.04570312 4.18085937 10.19296875 4.1875 11.375 C4.20167969 12.51710938 4.21585938 13.65921875 4.23046875 14.8359375 C4.01170034 17.83936816 3.57080637 19.47925934 2 22 C2.99 22.33 3.98 22.66 5 23 C5.22432841 26.29014997 5.30380397 28.42277246 3.75 31.375 C2 33 2 33 -2 33 C-2.33 33.66 -2.66 34.32 -3 35 C-3 34.01 -3 33.02 -3 32 C-1.35 31.34 0.3 30.68 2 30 C2 28.35 2 26.7 2 25 C1.67 25.66 1.34 26.32 1 27 C-1 26 -1 26 -2 25 C-2.40464295 22.08184498 -2.75459127 19.17855411 -3.0625 16.25 C-3.19881836 15.03183594 -3.19881836 15.03183594 -3.33789062 13.7890625 C-3.76539274 9.84190016 -4.12125133 5.9770436 -4 2 C-2.68 1.34 -1.36 0.68 0 0 Z " fill="#7F5A36" transform="translate(78,13)"/>
<path d="M0 0 C2.10457775 0.47735786 4.20864922 0.95694829 6.3125 1.4375 C7.48425781 1.70433594 8.65601563 1.97117187 9.86328125 2.24609375 C13 3 13 3 16 4 C16 4.66 16 5.32 16 6 C17.32 6 18.64 6 20 6 C20 6.66 20 7.32 20 8 C19.34 8 18.68 8 18 8 C18 8.66 18 9.32 18 10 C17.01 10 16.02 10 15 10 C15 9.34 15 8.68 15 8 C13.00016466 8.79117904 13.00016466 8.79117904 11 10 C10.67 10.99 10.34 11.98 10 13 C2.25 12.125 2.25 12.125 0 11 C0 11.99 0 12.98 0 14 C-1.65 14 -3.3 14 -5 14 C-5 11.69 -5 9.38 -5 7 C-3.84371094 7.14308594 -3.84371094 7.14308594 -2.6640625 7.2890625 C-1.66117188 7.39992188 -0.65828125 7.51078125 0.375 7.625 C1.37273438 7.74101563 2.37046875 7.85703125 3.3984375 7.9765625 C4.25695313 7.98429687 5.11546875 7.99203125 6 8 C6.66 7.34 7.32 6.68 8 6 C6.68 5.67 5.36 5.34 4 5 C4 4.01 4 3.02 4 2 C2.68 2 1.36 2 0 2 C0 1.34 0 0.68 0 0 Z " fill="#B0AFAE" transform="translate(40,84)"/>
<path d="M0 0 C0.99 0.33 1.98 0.66 3 1 C4.05874902 4.76444095 3.8234661 7.77979653 3.26171875 11.6171875 C2.55170346 18.08150577 2.53793565 24.65278412 4 31 C3.34 30.67 2.68 30.34 2 30 C2 29.01 2 28.02 2 27 C0.68 26.67 -0.64 26.34 -2 26 C-1.34 25.67 -0.68 25.34 0 25 C0.16681109 22.08347826 0.16681109 22.08347826 0 19 C-0.66 18.34 -1.32 17.68 -2 17 C-3.45070019 12.16433271 -4.25407962 8.08159232 -4 3 C-2.68 2.67 -1.36 2.34 0 2 C0 1.34 0 0.68 0 0 Z " fill="#815C38" transform="translate(40,19)"/>
<path d="M0 0 C0.66 0.33 1.32 0.66 2 1 C1.54625 1.37125 1.0925 1.7425 0.625 2.125 C-1.46829251 4.54033751 -2.07730627 6.96829204 -3 10 C-4.87643761 11.87643761 -7.49805701 11.17984987 -9.9921875 11.23046875 C-12 11 -12 11 -15 9 C-15.37366113 7.00714063 -15.70740515 5.00636471 -16 3 C-16.66 2.34 -17.32 1.68 -18 1 C-17.11957031 1.09539063 -16.23914062 1.19078125 -15.33203125 1.2890625 C-14.17058594 1.39992187 -13.00914063 1.51078125 -11.8125 1.625 C-10.66394531 1.74101563 -9.51539063 1.85703125 -8.33203125 1.9765625 C-4.94166251 2.00041035 -3.05568675 1.33516686 0 0 Z " fill="#BE966B" transform="translate(68,54)"/>
<path d="M0 0 C0.12375 0.639375 0.2475 1.27875 0.375 1.9375 C0.58125 2.618125 0.7875 3.29875 1 4 C3.28705831 5.14352916 4.59264762 5.10334439 7.125 5.0625 C9.043125 5.0315625 9.043125 5.0315625 11 5 C11.66 3.35 12.32 1.7 13 0 C17.75 0.875 17.75 0.875 20 2 C21.70702735 2.06996014 23.41668003 2.08440154 25.125 2.0625 C26.49011719 2.04896484 26.49011719 2.04896484 27.8828125 2.03515625 C28.58148438 2.02355469 29.28015625 2.01195312 30 2 C28.79296875 3.51953125 28.79296875 3.51953125 27 5 C24.73828125 5.07421875 24.73828125 5.07421875 22.3125 4.6875 C21.50425781 4.56761719 20.69601563 4.44773437 19.86328125 4.32421875 C19.24839844 4.21722656 18.63351563 4.11023437 18 4 C17.67 4.66 17.34 5.32 17 6 C16.34 6 15.68 6 15 6 C15.33 6.33 15.66 6.66 16 7 C16 7.66 16 8.32 16 9 C14.35 9.33 12.7 9.66 11 10 C11 9.34 11 8.68 11 8 C5.06 7.01 5.06 7.01 -1 6 C-1.33 6.99 -1.66 7.98 -2 9 C-2.66 8.34 -3.32 7.68 -4 7 C-4 6.01 -4 5.02 -4 4 C-5.65 4 -7.3 4 -9 4 C-3 0 -3 0 0 0 Z " fill="#4F677C" transform="translate(53,59)"/>
<path d="M0 0 C2.31 0 4.62 0 7 0 C6.67 0.99 6.34 1.98 6 3 C3.9375 3.6875 3.9375 3.6875 2 4 C2 4.66 2 5.32 2 6 C1.01 6 0.02 6 -1 6 C-1 6.66 -1 7.32 -1 8 C-3.475 7.01 -3.475 7.01 -6 6 C-6 5.34 -6 4.68 -6 4 C-5.34 4 -4.68 4 -4 4 C-4 3.34 -4 2.68 -4 2 C-4.66 1.67 -5.32 1.34 -6 1 C-3.03 1.495 -3.03 1.495 0 2 C0 1.34 0 0.68 0 0 Z M-9 4 C-9 4.66 -9 5.32 -9 6 C-8.01 6.33 -7.02 6.66 -6 7 C-12.07877934 10.24201565 -17.18401613 10.33278764 -24 10 C-24 9.01 -24 8.02 -24 7 C-19.05 7.99 -19.05 7.99 -14 9 C-13.67 7.68 -13.34 6.36 -13 5 C-11 4 -11 4 -9 4 Z " fill="#B4B3B2" transform="translate(64,88)"/>
<path d="M0 0 C0.0625 2.5625 0.0625 2.5625 -1 6 C-3.71999888 8.75854138 -6.62987863 11.0855445 -10 13 C-11.32 13 -12.64 13 -14 13 C-14 12.34 -14 11.68 -14 11 C-12.02 10.34 -10.04 9.68 -8 9 C-8 8.34 -8 7.68 -8 7 C-7.484375 6.54625 -6.96875 6.0925 -6.4375 5.625 C-5.963125 5.08875 -5.48875 4.5525 -5 4 C-5.22757731 1.83700789 -5.22757731 1.83700789 -6 0 C-6.33 0.66 -6.66 1.32 -7 2 C-8.98 2 -10.96 2 -13 2 C-9.16001987 -2.17389144 -5.07563763 -0.9001665 0 0 Z " fill="#919190" transform="translate(90,82)"/>
<path d="M0 0 C1.125 3.75 1.125 3.75 0 6 C0.12544644 14.63882509 0.12544644 14.63882509 4 22 C4.04092937 24.33297433 4.04241723 26.66705225 4 29 C2.0625 28.625 2.0625 28.625 0 28 C-3.33963682 21.32072637 -3.25644897 8.92640303 -1 1.875 C-0.67 1.25625 -0.34 0.6375 0 0 Z " fill="#B1A08D" transform="translate(37,16)"/>
<path d="M0 0 C2.4375 3.0625 2.4375 3.0625 4 6 C4.66 6.33 5.32 6.66 6 7 C5.67 7.66 5.34 8.32 5 9 C2.75 8.875 2.75 8.875 0 8 C-0.639375 7.030625 -1.27875 6.06125 -1.9375 5.0625 C-3.73888752 1.88184744 -3.73888752 1.88184744 -6.625 0.5625 C-13.10097981 -0.51682997 -19.59414599 0.81997426 -26 2 C-19.26398042 -3.73809075 -7.9556449 -3.37369557 0 0 Z " fill="#BEBDBC" transform="translate(74,5)"/>
<path d="M0 0 C0.33 0.66 0.66 1.32 1 2 C2.32 2 3.64 2 5 2 C6.66666667 3.66666667 8.33333333 5.33333333 10 7 C7.24752969 8.33691415 5.39508723 9.01837615 2.3125 8.875 C0 8 0 8 -1.3125 6.125 C-2 4 -2 4 -2 1 C-1.34 0.67 -0.68 0.34 0 0 Z " fill="#B3B3B1" transform="translate(39,84)"/>
<path d="M0 0 C0.33 0 0.66 0 1 0 C0.98839844 1.16917969 0.97679687 2.33835937 0.96484375 3.54296875 C0.95546087 5.09114423 0.9463612 6.63932145 0.9375 8.1875 C0.92912109 8.95642578 0.92074219 9.72535156 0.91210938 10.51757812 C0.89508066 14.48526789 1.01395885 18.12571234 2 22 C1.34 21.67 0.68 21.34 0 21 C0 20.01 0 19.02 0 18 C-1.32 17.67 -2.64 17.34 -4 17 C-3.34 16.67 -2.68 16.34 -2 16 C-1.83318891 13.08347826 -1.83318891 13.08347826 -2 10 C-2.66 9.34 -3.32 8.68 -4 8 C-4.40047444 5.67724823 -4.7397104 3.34260643 -5 1 C-2.525 1.495 -2.525 1.495 0 2 C0 1.34 0 0.68 0 0 Z " fill="#5F4C39" transform="translate(42,28)"/>
<path d="M0 0 C2.64 0 5.28 0 8 0 C7.125 4.875 7.125 4.875 6 6 C3.32941149 6.14115161 0.67567762 6.04247107 -2 6 C-2.33 5.01 -2.66 4.02 -3 3 C-2.01 3 -1.02 3 0 3 C0 2.01 0 1.02 0 0 Z " fill="#D3AA7A" transform="translate(58,59)"/>
<path d="M0 0 C-1.485 0.86625 -1.485 0.86625 -3 1.75 C-3.99 2.4925 -4.98 3.235 -6 4 C-6 5.32 -6 6.64 -6 8 C-3.69 8 -1.38 8 1 8 C1.33 8.66 1.66 9.32 2 10 C0.80375 9.95875 -0.3925 9.9175 -1.625 9.875 C-5.42329953 9.86148292 -8.44975618 10.57990247 -12 12 C-11.690625 11.2575 -11.38125 10.515 -11.0625 9.75 C-9.96876427 7.14396429 -9.96876427 7.14396429 -9.5625 4.875 C-8.84834622 2.49448741 -7.95404535 1.51981305 -6 0 C-2.52631579 -1.26315789 -2.52631579 -1.26315789 0 0 Z " fill="#4B5C6C" transform="translate(87,72)"/>
<path d="M0 0 C4.29 0.99 8.58 1.98 13 3 C13 3.99 13 4.98 13 6 C9.37 6 5.74 6 2 6 C1.34 4.02 0.68 2.04 0 0 Z " fill="#4F7292" transform="translate(51,64)"/>
<path d="M0 0 C0.33 1.32 0.66 2.64 1 4 C4.3 4.66 7.6 5.32 11 6 C11 6.33 11 6.66 11 7 C7 7 3 7 -1 7 C-1.33 7.66 -1.66 8.32 -2 9 C-2.66 8.34 -3.32 7.68 -4 7 C-4 6.01 -4 5.02 -4 4 C-5.65 4 -7.3 4 -9 4 C-3 0 -3 0 0 0 Z " fill="#445665" transform="translate(53,59)"/>
<path d="M0 0 C0 0.66 0 1.32 0 2 C0.99 2.33 1.98 2.66 3 3 C-3.07877934 6.24201565 -8.18401613 6.33278764 -15 6 C-15 5.01 -15 4.02 -15 3 C-10.05 3.99 -10.05 3.99 -5 5 C-4.67 3.68 -4.34 2.36 -4 1 C-2 0 -2 0 0 0 Z " fill="#BABAB9" transform="translate(55,92)"/>
<path d="M0 0 C3.875 2.75 3.875 2.75 5 5 C5.66 5.33 6.32 5.66 7 6 C6.01 6.33 5.02 6.66 4 7 C4 9.64 4 12.28 4 15 C3.46375 14.195625 2.9275 13.39125 2.375 12.5625 C-0.43105369 9.53491576 -1.96825194 9.27489191 -6 9 C-5.67 8.34 -5.34 7.68 -5 7 C-2.03 7.495 -2.03 7.495 1 8 C0.67 5.36 0.34 2.72 0 0 Z " fill="#523E2A" transform="translate(71,8)"/>
<path d="M0 0 C-3.13498292 1.85776765 -5.37471432 2.20140476 -9 2 C-8.34 4.64 -7.68 7.28 -7 10 C-7.66 10 -8.32 10 -9 10 C-9 10.66 -9 11.32 -9 12 C-9.66 12 -10.32 12 -11 12 C-11.33 12.66 -11.66 13.32 -12 14 C-12.05447047 12.58376784 -12.09300508 11.16691809 -12.125 9.75 C-12.14820313 8.96109375 -12.17140625 8.1721875 -12.1953125 7.359375 C-11.97651475 4.71629813 -11.48369475 3.19433171 -10 1 C-3.94067797 -1.31355932 -3.94067797 -1.31355932 0 0 Z " fill="#594532" transform="translate(49,9)"/>
<path d="M0 0 C0.66 0 1.32 0 2 0 C2.06058594 0.60328125 2.12117188 1.2065625 2.18359375 1.828125 C2.26738281 2.62734375 2.35117187 3.4265625 2.4375 4.25 C2.55931641 5.43335937 2.55931641 5.43335937 2.68359375 6.640625 C2.97951993 8.84728444 3.29426879 10.88748009 4 13 C4.66 13.33 5.32 13.66 6 14 C3.03 13.505 3.03 13.505 0 13 C0.33 10.69 0.66 8.38 1 6 C-1.31 5.34 -3.62 4.68 -6 4 C-3 3 -3 3 -1 3 C-0.67 2.01 -0.34 1.02 0 0 Z " fill="#44596D" transform="translate(40,71)"/>
<path d="M0 0 C2.64 0 5.28 0 8 0 C8 0.99 8 1.98 8 3 C5.69 3.33 3.38 3.66 1 4 C0.67 5.32 0.34 6.64 0 8 C-0.33 7.67 -0.66 7.34 -1 7 C-0.71269945 4.66055264 -0.38063221 2.3260857 0 0 Z " fill="#939291" transform="translate(32,81)"/>
<path d="M0 0 C2.31 0.33 4.62 0.66 7 1 C7.22432841 4.29014997 7.30380397 6.42277246 5.75 9.375 C4 11 4 11 0 11 C-0.33 11.66 -0.66 12.32 -1 13 C-1 12.01 -1 11.02 -1 10 C0.65 9.34 2.3 8.68 4 8 C4 6.35 4 4.7 4 3 C3.67 3.66 3.34 4.32 3 5 C2.34 4.67 1.68 4.34 1 4 C0.375 1.9375 0.375 1.9375 0 0 Z " fill="#86735B" transform="translate(76,35)"/>
<path d="M0 0 C2.475 0.495 2.475 0.495 5 1 C5 1.66 5 2.32 5 3 C5.66 3.33 6.32 3.66 7 4 C6.34 4 5.68 4 5 4 C5 4.99 5 5.98 5 7 C3.35 7 1.7 7 0 7 C0 4.69 0 2.38 0 0 Z " fill="#464647" transform="translate(35,91)"/>
<path d="M0 0 C2.64 0 5.28 0 8 0 C3.375 5.875 3.375 5.875 0 7 C0 4.69 0 2.38 0 0 Z " fill="#D8AF80" transform="translate(44,22)"/>
<path d="M0 0 C0.33 0.99 0.66 1.98 1 3 C-3.62730711 4.0448758 -8.28853878 4.51756279 -13 5 C-13.66 3.68 -14.32 2.36 -15 1 C-14.08476563 1.01160156 -13.16953125 1.02320313 -12.2265625 1.03515625 C-11.03804687 1.04417969 -9.84953125 1.05320313 -8.625 1.0625 C-6.84996094 1.07990234 -6.84996094 1.07990234 -5.0390625 1.09765625 C-2.08078479 1.21466593 -2.08078479 1.21466593 0 0 Z " fill="#645B4F" transform="translate(66,45)"/>
<path d="M0 0 C2.35953094 2.35953094 2.49141413 3.77895617 3 7 C3.99 7 4.98 7 6 7 C5.67 8.32 5.34 9.64 5 11 C5.66 11.33 6.32 11.66 7 12 C5.35 12.33 3.7 12.66 2 13 C1.66127487 11.58461283 1.32925376 10.16762037 1 8.75 C0.814375 7.96109375 0.62875 7.1721875 0.4375 6.359375 C0 4 0 4 0 0 Z " fill="#5A4530" transform="translate(75,24)"/>
<path d="M0 0 C0.66 0.33 1.32 0.66 2 1 C-1.37022466 4.05555995 -4.07780612 4.56505102 -8.5625 4.9375 C-9.69816406 5.04964844 -10.83382812 5.16179688 -12.00390625 5.27734375 C-15 5 -15 5 -16.90234375 3.00390625 C-17.26457031 2.34261719 -17.62679687 1.68132813 -18 1 C-17.11957031 1.09539063 -16.23914062 1.19078125 -15.33203125 1.2890625 C-14.17058594 1.39992187 -13.00914063 1.51078125 -11.8125 1.625 C-10.66394531 1.74101563 -9.51539063 1.85703125 -8.33203125 1.9765625 C-4.94166251 2.00041035 -3.05568675 1.33516686 0 0 Z " fill="#5C4F40" transform="translate(68,54)"/>
<path d="M0 0 C2.3125 -0.3125 2.3125 -0.3125 5 0 C6.6875 2.4375 6.6875 2.4375 8 5 C8.66 5.33 9.32 5.66 10 6 C9.67 6.66 9.34 7.32 9 8 C6.75 7.9375 6.75 7.9375 4 7 C2.32150176 4.7691525 1.24000737 2.52594094 0 0 Z " fill="#9F9E9D" transform="translate(70,6)"/>
<path d="M0 0 C2.31 0 4.62 0 7 0 C2.3110536 3.12596427 -0.91229843 3.27747109 -6.46875 3.62109375 C-9.1645758 3.76815328 -9.1645758 3.76815328 -11 6 C-11.33 4.35 -11.66 2.7 -12 1 C-8.04 1.33 -4.08 1.66 0 2 C0 1.34 0 0.68 0 0 Z " fill="#58412A" transform="translate(54,18)"/>
<path d="M0 0 C0.99 0 1.98 0 3 0 C3 2.31 3 4.62 3 7 C1.68 6.67 0.36 6.34 -1 6 C-1.042721 4.33388095 -1.04063832 2.66617115 -1 1 C-0.67 0.67 -0.34 0.34 0 0 Z " fill="#443E36" transform="translate(65,32)"/>
<path d="M0 0 C2.9375 0.375 2.9375 0.375 6 1 C6.33 1.66 6.66 2.32 7 3 C7.99 3.66 8.98 4.32 10 5 C7.36 4.67 4.72 4.34 2 4 C2 3.34 2 2.68 2 2 C1.34 2 0.68 2 0 2 C0 1.34 0 0.68 0 0 Z " fill="#908F8F" transform="translate(40,92)"/>
<path d="M0 0 C3.63 0.66 7.26 1.32 11 2 C10.01 3.485 10.01 3.485 9 5 C6.375 5.1875 6.375 5.1875 4 5 C4 4.01 4 3.02 4 2 C2.68 2 1.36 2 0 2 C0 1.34 0 0.68 0 0 Z " fill="#A4A3A2" transform="translate(40,84)"/>
<path d="M0 0 C0.66 0 1.32 0 2 0 C2.33 1.98 2.66 3.96 3 6 C1.68 6 0.36 6 -1 6 C-1.042721 4.33388095 -1.04063832 2.66617115 -1 1 C-0.67 0.67 -0.34 0.34 0 0 Z " fill="#3A342F" transform="translate(50,32)"/>
<path d="M0 0 C-2.125 1.625 -2.125 1.625 -5 3 C-8.3125 2.1875 -8.3125 2.1875 -11 1 C-11 0.67 -11 0.34 -11 0 C-3.375 -1.125 -3.375 -1.125 0 0 Z " fill="#B5B3AF" transform="translate(65,49)"/>
<path d="M0 0 C4.95 0.99 4.95 0.99 10 2 C6.5647952 4.29013653 5.014669 4.17842973 1 4 C0.67 2.68 0.34 1.36 0 0 Z " fill="#5881A5" transform="translate(51,64)"/>
<path d="M0 0 C2.9375 0.8125 2.9375 0.8125 6 2 C6.33 2.99 6.66 3.98 7 5 C5.02 5.66 3.04 6.32 1 7 C1.33 6.34 1.66 5.68 2 5 C2.66 5 3.32 5 4 5 C2.68 3.35 1.36 1.7 0 0 Z " fill="#B9B8B7" transform="translate(46,54)"/>
<path d="M0 0 C0.66 0.33 1.32 0.66 2 1 C2.1875 3.375 2.1875 3.375 2 6 C1.01 6.66 0.02 7.32 -1 8 C-1.04241723 5.66705225 -1.04092937 3.33297433 -1 1 C-0.67 0.67 -0.34 0.34 0 0 Z " fill="#547DA1" transform="translate(76,75)"/>
</svg>
